<?xml version="1.0" encoding="utf-8"?>
<!-- Generator: Adobe Illustrator 24.0.2, SVG Export Plug-In . SVG Version: 6.00 Build 0)  -->
<svg version="1.1" id="Layer_1" xmlns="http://www.w3.org/2000/svg" xmlns:xlink="http://www.w3.org/1999/xlink" x="0px" y="0px"
	 viewBox="0 0 180 180" style="enable-background:new 0 0 180 180;" xml:space="preserve">
<style type="text/css">
	.st0{fill:#F3CC23;}
	.st1{fill:#FFFFFF;}
	.st2{fill:#272525;}
</style>
<g>
	<path class="st0" d="M180,90c0,49.7-40.3,90-90,90S0,139.7,0,90S40.3,0,90,0S180,40.3,180,90"/>
	<g>
		<path class="st1" d="M111.6,80.5c-1.4-0.3-2.8,0-4.9,1.2l-2.2,1.3l6.1,10.6l2.2-1.3c2-1.2,3-2.3,3.5-3.6c0.5-1.6,0.3-3.5-0.6-5.1
			C114.8,81.9,113.2,80.8,111.6,80.5 M109.7,96.6l-8.4-14.5l4.4-2.5c2.3-1.3,4.1-1.7,5.8-1.5c2.5,0.3,4.9,1.8,6.3,4.2
			c1.4,2.4,1.6,5.2,0.5,7.6c-0.7,1.6-1.9,2.9-4.2,4.3L109.7,96.6z"/>
		<path class="st1" d="M124.9,80.2l4.5-2.6l-5.4-4.1L124.9,80.2z M131.3,79.2l-6.1,3.5l0.6,4.6l-2.2,1.3l-2.4-18l1.5-0.8l14.4,11.1
			l-2.2,1.3L131.3,79.2z"/>
		<polygon class="st1" points="139.3,60.1 139,68.1 131.9,64.4 129.5,65.8 139.1,70.8 142.9,77.4 145,76.3 141.2,69.6 141.6,58.8 		
			"/>
		<path class="st2" d="M88.3,78.9c0-1.1-0.3-1.6-0.6-2c-0.4-0.4-1-0.6-1.6-0.6s-1.2,0.3-1.6,0.6c-0.4,0.4-0.6,1-0.6,2v3.4h4.3V78.9z
			 M90.5,82.3h7.9v2.4H81.6v-5.9c0-1.6,0.3-2.5,1-3.3c0.8-1,2.1-1.6,3.5-1.6s2.6,0.6,3.5,1.6c0.4,0.5,0.7,1.1,0.9,2l8-6v2.9l-7.9,6
			L90.5,82.3L90.5,82.3z"/>
		<path class="st2" d="M91.9,47.9v-5.2l-6.2,2.6L91.9,47.9z M94.1,41.7v7.1l4.3,1.8v2.5l-16.8-7v-1.7l16.8-7V40L94.1,41.7z"/>
		<polygon class="st2" points="81.7,35.5 81.7,24 83.9,24 83.9,28.5 98.5,28.5 98.5,30.9 83.9,30.9 83.9,35.5 		"/>
		<polygon class="st2" points="81.7,9.5 81.7,19.1 98.5,19.1 98.5,9.5 96.2,9.5 96.2,16.6 91.5,16.6 91.2,16.6 91.2,10.1 89,10.1 
			89,16.6 83.9,16.6 83.9,9.5 		"/>
		<polygon class="st2" points="98.4,66.9 98.4,57.3 96.1,57.3 96.1,64.5 91.5,64.5 91.2,64.5 91.2,57.9 88.9,57.9 88.9,64.5 
			83.9,64.5 83.9,57.3 81.7,57.3 81.7,66.9 		"/>
		<path class="st2" d="M98.8,96.3c0,2.3-0.9,4.5-2.5,6.2c-1.6,1.6-3.8,2.5-6.2,2.5s-4.5-0.9-6.2-2.5c-1.6-1.6-2.5-3.8-2.5-6.2
			c0-2.3,0.9-4.5,2.5-6.2l1.7,1.7c-1.2,1.2-1.9,2.8-1.9,4.5c0,1.7,0.6,3.3,1.9,4.5c1.2,1.2,2.8,1.9,4.5,1.9c1.7,0,3.3-0.6,4.5-1.9
			c1.2-1.2,1.9-2.8,1.9-4.5c0-1.7-0.6-3.3-1.9-4.5l1.7-1.7C97.9,91.7,98.8,93.9,98.8,96.3"/>
	</g>
</g>
</svg>
