<?xml version="1.0" encoding="UTF-8" standalone="no"?>
<!-- Created with Inkscape (http://www.inkscape.org/) -->

<svg
   xmlns:dc="http://purl.org/dc/elements/1.1/"
   xmlns:cc="http://creativecommons.org/ns#"
   xmlns:rdf="http://www.w3.org/1999/02/22-rdf-syntax-ns#"
   xmlns:svg="http://www.w3.org/2000/svg"
   xmlns="http://www.w3.org/2000/svg"
   xmlns:sodipodi="http://sodipodi.sourceforge.net/DTD/sodipodi-0.dtd"
   xmlns:inkscape="http://www.inkscape.org/namespaces/inkscape"
   width="110.78248mm"
   height="53.781696mm"
   viewBox="0 0 110.78248 53.781696"
   version="1.1"
   id="svg1400"
   inkscape:version="0.92.2 (5c3e80d, 2017-08-06)"
   sodipodi:docname="designers-consociate-logo-2020.svg">
  <defs
     id="defs1394" />
  <sodipodi:namedview
     id="base"
     pagecolor="#ffffff"
     bordercolor="#666666"
     borderopacity="1.0"
     inkscape:pageopacity="0.0"
     inkscape:pageshadow="2"
     inkscape:zoom="1.979899"
     inkscape:cx="244.45014"
     inkscape:cy="96.711888"
     inkscape:document-units="mm"
     inkscape:current-layer="layer1"
     showgrid="false"
     inkscape:window-width="1920"
     inkscape:window-height="986"
     inkscape:window-x="-11"
     inkscape:window-y="-11"
     inkscape:window-maximized="1"
     fit-margin-top="0"
     fit-margin-left="0"
     fit-margin-right="0"
     fit-margin-bottom="0" />
  <metadata
     id="metadata1397">
    <rdf:RDF>
      <cc:Work
         rdf:about="">
        <dc:format>image/svg+xml</dc:format>
        <dc:type
           rdf:resource="http://purl.org/dc/dcmitype/StillImage" />
        <dc:title></dc:title>
      </cc:Work>
    </rdf:RDF>
  </metadata>
  <g
     inkscape:label="Layer 1"
     inkscape:groupmode="layer"
     id="layer1"
     transform="translate(-50.803185,-123.38273)">
    <path
       style="opacity:1;fill:#ffffff;fill-opacity:1;stroke:#ffffff;stroke-width:1.11600006;stroke-linecap:round;stroke-linejoin:round;stroke-miterlimit:4;stroke-dasharray:1.116, 13.39199999999999946;stroke-dashoffset:1.11600006;stroke-opacity:1;paint-order:stroke fill markers"
       d="m 103.77593,153.87897 a 26.329899,26.329899 0 0 1 -29.687291,22.47649 26.329899,26.329899 0 0 1 -22.47649,-29.68729 26.329899,26.329899 0 0 1 29.687278,-22.47648 26.329899,26.329899 0 0 1 22.476503,29.68728 z"
       id="path829-1-8-5"
       inkscape:connector-curvature="0"
       inkscape:export-xdpi="300"
       inkscape:export-ydpi="300" />
    <rect
       style="opacity:1;fill:#ffffff;fill-opacity:1;stroke:#ffffff;stroke-width:0.97859293;stroke-linecap:round;stroke-linejoin:round;stroke-miterlimit:4;stroke-dasharray:0.97859287, 11.74311458000000030;stroke-dashoffset:3.08409452;stroke-opacity:1;paint-order:stroke fill markers"
       id="rect3078"
       width="64.201881"
       height="23.228539"
       x="67.724236"
       y="137.85667"
       inkscape:export-xdpi="300"
       inkscape:export-ydpi="300" />
    <path
       inkscape:connector-curvature="0"
       id="path3184"
       style="font-style:normal;font-variant:normal;font-weight:normal;font-stretch:normal;font-size:12.69999981px;line-height:1.25;font-family:'Javanese Text';-inkscape-font-specification:'Javanese Text, Normal';font-variant-ligatures:normal;font-variant-caps:normal;font-variant-numeric:normal;font-feature-settings:normal;text-align:start;letter-spacing:3.96875px;word-spacing:0px;writing-mode:lr-tb;text-anchor:start;fill:#ffffff;fill-opacity:1;stroke:#ffffff;stroke-width:0.26499999;stroke-miterlimit:4;stroke-dasharray:none;stroke-opacity:1"
       d="m 70.659877,145.11262 q 0,0.70693 0.09922,1.15962 0.09922,0.44648 0.279052,0.70693 0.179834,0.25425 0.427881,0.35347 0.254248,0.093 0.551905,0.093 0.471289,0 0.768945,-0.20464 0.303857,-0.20464 0.47749,-0.5395 0.179834,-0.33487 0.248047,-0.75655 0.06821,-0.42788 0.06821,-0.86816 0,-0.63252 -0.117822,-1.0666 -0.111621,-0.44029 -0.31626,-0.70694 -0.204639,-0.26665 -0.489893,-0.38447 -0.279052,-0.11782 -0.613916,-0.11782 -0.297656,0 -0.551904,0.093 -0.254248,0.093 -0.440283,0.35346 -0.186035,0.25425 -0.291455,0.70694 -0.09922,0.45268 -0.09922,1.17822 z m 4.036963,2.1332 h 0.930176 v 0.4961 h -2.046387 v -0.75035 h -0.02481 q -0.16123,0.26665 -0.353467,0.44649 -0.186035,0.17363 -0.396875,0.28525 -0.210839,0.10542 -0.440283,0.14883 -0.229443,0.0434 -0.465088,0.0434 -0.589111,0 -1.047998,-0.21704 -0.458886,-0.22324 -0.775146,-0.59531 -0.31626,-0.37828 -0.483692,-0.88057 -0.16123,-0.5023 -0.16123,-1.0728 0,-0.59532 0.179834,-1.11622 0.179834,-0.52709 0.508496,-0.91157 0.334863,-0.38447 0.79375,-0.60771 0.465088,-0.22324 1.029395,-0.22324 0.545703,0 0.95498,0.22944 0.409277,0.22324 0.657324,0.63252 h 0.02481 v -3.92534 h -0.992188 v -0.4961 h 2.108399 z"
       inkscape:export-xdpi="300"
       inkscape:export-ydpi="300" />
    <path
       inkscape:connector-curvature="0"
       id="path3186"
       style="font-style:normal;font-variant:normal;font-weight:normal;font-stretch:normal;font-size:12.69999981px;line-height:1.25;font-family:'Javanese Text';-inkscape-font-specification:'Javanese Text, Normal';font-variant-ligatures:normal;font-variant-caps:normal;font-variant-numeric:normal;font-feature-settings:normal;text-align:start;letter-spacing:3.96875px;word-spacing:0px;writing-mode:lr-tb;text-anchor:start;fill:#ffffff;fill-opacity:1;stroke:#ffffff;stroke-width:0.26499999;stroke-miterlimit:4;stroke-dasharray:none;stroke-opacity:1"
       d="m 85.344252,146.0614 q -0.198438,0.89917 -0.768946,1.37666 -0.570508,0.47749 -1.48208,0.47749 -0.626318,0 -1.116211,-0.21704 -0.489892,-0.22324 -0.830957,-0.60152 -0.341064,-0.37827 -0.520898,-0.88056 -0.179834,-0.5085 -0.179834,-1.07901 0,-0.58291 0.186035,-1.10381 0.186035,-0.52089 0.5271,-0.90537 0.347265,-0.38447 0.824755,-0.60771 0.483692,-0.22944 1.079004,-0.22944 0.545703,0 0.979785,0.19223 0.434083,0.19224 0.73794,0.5395 0.303857,0.34107 0.465088,0.81856 0.167431,0.47749 0.179834,1.048 H 81.68556 q -0.0062,0.10542 -0.0062,0.14262 0,0.031 0,0.0372 0,0.73174 0.10542,1.19063 0.111621,0.45888 0.303857,0.71933 0.198438,0.25425 0.465088,0.34727 0.272852,0.093 0.601514,0.093 0.303857,0 0.570508,-0.0806 0.272851,-0.0806 0.489892,-0.25425 0.217041,-0.17983 0.378272,-0.45889 0.167431,-0.28525 0.26665,-0.68212 0.124024,0.0124 0.248047,0.0434 0.124023,0.031 0.235645,0.0744 z m -1.172022,-1.65571 q -0.0186,-0.5147 -0.111621,-0.83096 -0.08682,-0.32246 -0.235645,-0.5023 -0.148828,-0.17983 -0.353466,-0.24184 -0.198438,-0.0682 -0.440284,-0.0682 -0.254248,0 -0.47749,0.0744 -0.217041,0.0744 -0.390674,0.26045 -0.173632,0.18603 -0.291455,0.50229 -0.111621,0.31626 -0.155029,0.80616 z"
       inkscape:export-xdpi="300"
       inkscape:export-ydpi="300" />
    <path
       inkscape:connector-curvature="0"
       id="path3188"
       style="font-style:normal;font-variant:normal;font-weight:normal;font-stretch:normal;font-size:12.69999981px;line-height:1.25;font-family:'Javanese Text';-inkscape-font-specification:'Javanese Text, Normal';font-variant-ligatures:normal;font-variant-caps:normal;font-variant-numeric:normal;font-feature-settings:normal;text-align:start;letter-spacing:3.96875px;word-spacing:0px;writing-mode:lr-tb;text-anchor:start;fill:#ffffff;fill-opacity:1;stroke:#ffffff;stroke-width:0.26499999;stroke-miterlimit:4;stroke-dasharray:none;stroke-opacity:1"
       d="m 94.019692,144.21345 q -0.03101,-0.40308 -0.136426,-0.68213 -0.09922,-0.27905 -0.272852,-0.45269 -0.173632,-0.17363 -0.421679,-0.24804 -0.241846,-0.0806 -0.558106,-0.0806 -0.241845,0 -0.446484,0.0496 -0.204639,0.0434 -0.353467,0.14263 -0.148828,0.093 -0.235644,0.24805 -0.08062,0.15502 -0.08062,0.37207 0,0.21704 0.07441,0.35966 0.08062,0.13643 0.254248,0.24805 0.179834,0.10542 0.452686,0.20464 0.279053,0.0992 0.682129,0.23564 0.322461,0.11163 0.638721,0.23565 0.316259,0.12402 0.564306,0.31006 0.254248,0.18603 0.409278,0.45268 0.155029,0.26045 0.155029,0.63872 0,0.42788 -0.192236,0.74414 -0.192237,0.31626 -0.508497,0.5209 -0.316259,0.20464 -0.719335,0.30386 -0.403077,0.0992 -0.824756,0.0992 -0.223242,0 -0.477491,-0.0248 -0.248046,-0.0248 -0.496093,-0.0682 -0.241846,-0.0434 -0.465088,-0.0992 -0.217041,-0.062 -0.384473,-0.12402 l -0.04341,-1.79834 h 0.427881 q 0.03101,0.47129 0.130224,0.79375 0.10542,0.31626 0.285254,0.5085 0.186036,0.19223 0.446485,0.27285 0.26665,0.0806 0.620117,0.0806 0.26665,0 0.489892,-0.0434 0.229444,-0.0496 0.396875,-0.14882 0.167432,-0.10542 0.26045,-0.27286 0.09922,-0.16743 0.09922,-0.40307 0,-0.20464 -0.07441,-0.33487 -0.07441,-0.13642 -0.235644,-0.24184 -0.161231,-0.10542 -0.415479,-0.19844 -0.254248,-0.093 -0.607715,-0.21704 -0.353466,-0.12402 -0.682128,-0.25425 -0.322461,-0.13642 -0.570508,-0.32246 -0.248047,-0.19224 -0.396875,-0.45889 -0.148828,-0.26665 -0.148828,-0.65112 0,-0.42168 0.173632,-0.72554 0.173633,-0.31005 0.458887,-0.50849 0.291455,-0.19844 0.663526,-0.29146 0.378271,-0.093 0.781347,-0.093 0.204639,0 0.427881,0.0248 0.223242,0.0186 0.440283,0.0558 0.223242,0.0372 0.42168,0.0868 0.204639,0.0434 0.37207,0.0868 l 0.04341,1.66812 z"
       inkscape:export-xdpi="300"
       inkscape:export-ydpi="300" />
    <path
       id="path3190"
       transform="scale(0.26458333)"
       style="font-style:normal;font-variant:normal;font-weight:normal;font-stretch:normal;font-size:12.69999981px;line-height:1.25;font-family:'Javanese Text';-inkscape-font-specification:'Javanese Text, Normal';font-variant-ligatures:normal;font-variant-caps:normal;font-variant-numeric:normal;font-feature-settings:normal;text-align:start;letter-spacing:3.96875px;word-spacing:0px;writing-mode:lr-tb;text-anchor:start;fill:#ffffff;fill-opacity:1;stroke:#ffffff;stroke-width:1.00157475;stroke-miterlimit:4;stroke-dasharray:none;stroke-opacity:1"
       d="m 376.18555,538.42578 v 1.875 h 3.51562 v 16.21875 h -3.51562 v 1.875 h 11.25 v -1.875 h -3.51563 v -18.09375 z"
       inkscape:export-xdpi="300"
       inkscape:export-ydpi="300"
       inkscape:connector-curvature="0" />
    <path
       inkscape:connector-curvature="0"
       id="path3192"
       style="font-style:normal;font-variant:normal;font-weight:normal;font-stretch:normal;font-size:12.69999981px;line-height:1.25;font-family:'Javanese Text';-inkscape-font-specification:'Javanese Text, Normal';font-variant-ligatures:normal;font-variant-caps:normal;font-variant-numeric:normal;font-feature-settings:normal;text-align:start;letter-spacing:3.96875px;word-spacing:0px;writing-mode:lr-tb;text-anchor:start;fill:#ffffff;fill-opacity:1;stroke:#ffffff;stroke-width:0.26499999;stroke-miterlimit:4;stroke-dasharray:none;stroke-opacity:1"
       d="m 108.17077,149.08137 q -0.10542,0.17363 -0.15503,0.33486 -0.0496,0.16123 -0.0496,0.31626 0,0.24805 0.12402,0.44029 0.12402,0.19223 0.34727,0.32246 0.22324,0.13022 0.5271,0.19223 0.31006,0.0682 0.67592,0.0682 0.5023,0 0.89297,-0.11783 0.39688,-0.11782 0.66973,-0.32866 0.27285,-0.21084 0.41548,-0.48989 0.14262,-0.27905 0.14262,-0.60772 0,-0.26665 -0.0992,-0.43408 -0.093,-0.16743 -0.26665,-0.26045 -0.17364,-0.093 -0.41548,-0.13022 -0.23565,-0.031 -0.5209,-0.031 -0.20464,0 -0.45889,0 -0.25425,0.006 -0.48989,0.0124 -0.23564,0.006 -0.42168,0.006 -0.18604,0.006 -0.26045,0.006 -0.35347,0 -0.61392,-0.0868 -0.25424,-0.0868 -0.42788,-0.24185 -0.17363,-0.15503 -0.26045,-0.36586 -0.0806,-0.21084 -0.0806,-0.45269 0,-0.33486 0.14883,-0.69453 0.14883,-0.35967 0.48369,-0.73174 -0.26045,-0.27905 -0.39688,-0.63872 -0.13642,-0.36587 -0.13642,-0.77515 0,-0.42788 0.14883,-0.80615 0.14882,-0.38447 0.42788,-0.66973 0.28525,-0.29145 0.69453,-0.45888 0.41548,-0.16743 0.94258,-0.16743 0.48369,0 0.86196,0.14262 0.37827,0.14263 0.65112,0.39068 0.17364,-0.17984 0.33487,-0.29766 0.16743,-0.11782 0.31005,-0.17983 0.14263,-0.0682 0.26665,-0.093 0.12403,-0.0248 0.22325,-0.0248 0.15503,0 0.26665,0.0496 0.11162,0.0434 0.17983,0.12403 0.0744,0.0744 0.10542,0.17363 0.0372,0.093 0.0372,0.19224 0,0.19843 -0.13023,0.35966 -0.12402,0.15503 -0.35346,0.15503 -0.17984,0 -0.34107,-0.11782 -0.15503,-0.11782 -0.20464,-0.34726 -0.12402,0.0496 -0.23564,0.12402 -0.10542,0.0682 -0.21084,0.16123 0.18603,0.26045 0.27905,0.57051 0.0992,0.31006 0.0992,0.65112 0,0.42788 -0.14883,0.81235 -0.14883,0.38448 -0.43408,0.67593 -0.28525,0.28526 -0.69453,0.45269 -0.40928,0.16743 -0.93638,0.16743 -0.37207,0 -0.68213,-0.0868 -0.31006,-0.0868 -0.5581,-0.24184 -0.15503,0.20464 -0.24185,0.39067 -0.0806,0.17983 -0.0806,0.34106 0,0.19844 0.17363,0.32867 0.17983,0.13022 0.60771,0.13022 0.0682,0 0.27906,0 0.21704,-0.006 0.47749,-0.006 0.26045,-0.006 0.50849,-0.006 0.25425,-0.006 0.39068,-0.006 0.44028,0 0.80615,0.0806 0.37207,0.0744 0.63252,0.26045 0.26665,0.18604 0.41548,0.48989 0.14883,0.30386 0.14883,0.75655 0,0.5519 -0.22325,0.99219 -0.22324,0.44028 -0.62631,0.75034 -0.39688,0.31006 -0.94878,0.47129 -0.54571,0.16743 -1.19683,0.16743 -0.57051,0 -1.01079,-0.12403 -0.43408,-0.11782 -0.73174,-0.31626 -0.29766,-0.19843 -0.45268,-0.45888 -0.15503,-0.25425 -0.15503,-0.5333 0,-0.26665 0.13642,-0.5147 0.14263,-0.24805 0.42788,-0.46509 0.11782,0.0496 0.20464,0.10542 0.0868,0.062 0.18604,0.14263 z m 2.57968,-4.7439 q 0,-0.44028 -0.0496,-0.74414 -0.0434,-0.31006 -0.16123,-0.49609 -0.11162,-0.19224 -0.31005,-0.27905 -0.19224,-0.0868 -0.4961,-0.0868 -0.30386,0 -0.50229,0.0868 -0.19844,0.0868 -0.32246,0.28525 -0.11783,0.19224 -0.16744,0.5085 -0.0496,0.31626 -0.0496,0.76894 0,0.44648 0.0434,0.75654 0.0496,0.30386 0.16743,0.4961 0.11783,0.19223 0.31006,0.27905 0.19844,0.0806 0.4961,0.0806 0.30385,0 0.50229,-0.0868 0.20464,-0.0868 0.32246,-0.28526 0.11783,-0.19843 0.16743,-0.50849 0.0496,-0.31626 0.0496,-0.77515 z"
       inkscape:export-xdpi="300"
       inkscape:export-ydpi="300" />
    <path
       inkscape:connector-curvature="0"
       id="path3194"
       style="font-style:normal;font-variant:normal;font-weight:normal;font-stretch:normal;font-size:12.69999981px;line-height:1.25;font-family:'Javanese Text';-inkscape-font-specification:'Javanese Text, Normal';font-variant-ligatures:normal;font-variant-caps:normal;font-variant-numeric:normal;font-feature-settings:normal;text-align:start;letter-spacing:3.96875px;word-spacing:0px;writing-mode:lr-tb;text-anchor:start;fill:#ffffff;fill-opacity:1;stroke:#ffffff;stroke-width:0.26499999;stroke-miterlimit:4;stroke-dasharray:none;stroke-opacity:1"
       d="m 119.43829,147.24582 h 0.83716 v 0.4961 h -2.88354 v -0.4961 h 0.93017 v -4.29121 h -0.93017 v -0.49609 h 2.04638 v 0.89917 h 0.0248 q 0.25425,-0.5147 0.68213,-0.78755 0.42788,-0.27905 1.10381,-0.27905 0.84956,0 1.26503,0.44028 0.41548,0.43408 0.41548,1.24643 v 3.26802 h 0.89917 v 0.4961 h -2.85254 v -0.4961 h 0.83716 v -3.44165 q 0,-0.48989 -0.22944,-0.71933 -0.22944,-0.23565 -0.64492,-0.23565 -0.31626,0 -0.58911,0.13643 -0.27286,0.13022 -0.47749,0.40927 -0.19844,0.27906 -0.31626,0.71314 -0.11783,0.43408 -0.11783,1.02939 z"
       inkscape:export-xdpi="300"
       inkscape:export-ydpi="300" />
    <path
       inkscape:connector-curvature="0"
       id="path3196"
       style="font-style:normal;font-variant:normal;font-weight:normal;font-stretch:normal;font-size:12.69999981px;line-height:1.25;font-family:'Javanese Text';-inkscape-font-specification:'Javanese Text, Normal';font-variant-ligatures:normal;font-variant-caps:normal;font-variant-numeric:normal;font-feature-settings:normal;text-align:start;letter-spacing:3.96875px;word-spacing:0px;writing-mode:lr-tb;text-anchor:start;fill:#ffffff;fill-opacity:1;stroke:#ffffff;stroke-width:0.26499999;stroke-miterlimit:4;stroke-dasharray:none;stroke-opacity:1"
       d="m 133.51495,146.0614 q -0.19843,0.89917 -0.76894,1.37666 -0.57051,0.47749 -1.48208,0.47749 -0.62632,0 -1.11621,-0.21704 -0.4899,-0.22324 -0.83096,-0.60152 -0.34106,-0.37827 -0.5209,-0.88056 -0.17983,-0.5085 -0.17983,-1.07901 0,-0.58291 0.18603,-1.10381 0.18604,-0.52089 0.5271,-0.90537 0.34727,-0.38447 0.82476,-0.60771 0.48369,-0.22944 1.079,-0.22944 0.54571,0 0.97979,0.19223 0.43408,0.19224 0.73794,0.5395 0.30385,0.34107 0.46508,0.81856 0.16744,0.47749 0.17984,1.048 h -3.73931 q -0.006,0.10542 -0.006,0.14262 0,0.031 0,0.0372 0,0.73174 0.10542,1.19063 0.11162,0.45888 0.30386,0.71933 0.19844,0.25425 0.46509,0.34727 0.27285,0.093 0.60151,0.093 0.30386,0 0.57051,-0.0806 0.27285,-0.0806 0.48989,-0.25425 0.21704,-0.17983 0.37827,-0.45889 0.16743,-0.28525 0.26665,-0.68212 0.12403,0.0124 0.24805,0.0434 0.12402,0.031 0.23564,0.0744 z m -1.17202,-1.65571 q -0.0186,-0.5147 -0.11162,-0.83096 -0.0868,-0.32246 -0.23564,-0.5023 -0.14883,-0.17983 -0.35347,-0.24184 -0.19844,-0.0682 -0.44028,-0.0682 -0.25425,0 -0.47749,0.0744 -0.21704,0.0744 -0.39068,0.26045 -0.17363,0.18603 -0.29145,0.50229 -0.11162,0.31626 -0.15503,0.80616 z"
       inkscape:export-xdpi="300"
       inkscape:export-ydpi="300" />
    <path
       inkscape:connector-curvature="0"
       id="path3198"
       style="font-style:normal;font-variant:normal;font-weight:normal;font-stretch:normal;font-size:12.69999981px;line-height:1.25;font-family:'Javanese Text';-inkscape-font-specification:'Javanese Text, Normal';font-variant-ligatures:normal;font-variant-caps:normal;font-variant-numeric:normal;font-feature-settings:normal;text-align:start;letter-spacing:3.96875px;word-spacing:0px;writing-mode:lr-tb;text-anchor:start;fill:#ffffff;fill-opacity:1;stroke:#ffffff;stroke-width:0.26499999;stroke-miterlimit:4;stroke-dasharray:none;stroke-opacity:1"
       d="m 141.56408,147.74192 h -3.03857 v -0.4961 h 0.93017 v -4.29121 h -0.93017 v -0.49609 h 2.04638 v 0.96118 h 0.0248 q 0.11162,-0.24185 0.27285,-0.44028 0.16743,-0.20464 0.36587,-0.35347 0.19843,-0.14883 0.42168,-0.22944 0.22324,-0.0806 0.45268,-0.0806 0.37207,0 0.61392,0.21704 0.24184,0.21704 0.24184,0.60152 0,0.34106 -0.18603,0.5333 -0.18604,0.18603 -0.48369,0.18603 -0.31006,0 -0.47749,-0.17983 -0.16123,-0.17984 -0.16123,-0.45269 0,-0.14263 0.0558,-0.31006 -0.24185,0.0868 -0.45269,0.27906 -0.20464,0.18603 -0.35967,0.47128 -0.15503,0.28526 -0.24184,0.66353 -0.0868,0.37207 -0.0868,0.83096 v 2.08979 h 0.99219 z"
       inkscape:export-xdpi="300"
       inkscape:export-ydpi="300" />
    <path
       inkscape:connector-curvature="0"
       id="path3200"
       style="font-style:normal;font-variant:normal;font-weight:normal;font-stretch:normal;font-size:12.69999981px;line-height:1.25;font-family:'Javanese Text';-inkscape-font-specification:'Javanese Text, Normal';font-variant-ligatures:normal;font-variant-caps:normal;font-variant-numeric:normal;font-feature-settings:normal;text-align:start;letter-spacing:3.96875px;word-spacing:0px;writing-mode:lr-tb;text-anchor:start;fill:#ffffff;fill-opacity:1;stroke:#ffffff;stroke-width:0.26499999;stroke-miterlimit:4;stroke-dasharray:none;stroke-opacity:1"
       d="m 150.94645,144.21345 q -0.031,-0.40308 -0.13643,-0.68213 -0.0992,-0.27905 -0.27285,-0.45269 -0.17363,-0.17363 -0.42168,-0.24804 -0.24185,-0.0806 -0.5581,-0.0806 -0.24185,0 -0.44649,0.0496 -0.20464,0.0434 -0.35347,0.14263 -0.14882,0.093 -0.23564,0.24805 -0.0806,0.15502 -0.0806,0.37207 0,0.21704 0.0744,0.35966 0.0806,0.13643 0.25425,0.24805 0.17983,0.10542 0.45268,0.20464 0.27905,0.0992 0.68213,0.23564 0.32246,0.11163 0.63872,0.23565 0.31626,0.12402 0.56431,0.31006 0.25425,0.18603 0.40928,0.45268 0.15502,0.26045 0.15502,0.63872 0,0.42788 -0.19223,0.74414 -0.19224,0.31626 -0.5085,0.5209 -0.31626,0.20464 -0.71933,0.30386 -0.40308,0.0992 -0.82476,0.0992 -0.22324,0 -0.47749,-0.0248 -0.24805,-0.0248 -0.49609,-0.0682 -0.24185,-0.0434 -0.46509,-0.0992 -0.21704,-0.062 -0.38447,-0.12402 l -0.0434,-1.79834 h 0.42788 q 0.031,0.47129 0.13022,0.79375 0.10542,0.31626 0.28526,0.5085 0.18603,0.19223 0.44648,0.27285 0.26665,0.0806 0.62012,0.0806 0.26665,0 0.48989,-0.0434 0.22944,-0.0496 0.39688,-0.14882 0.16743,-0.10542 0.26045,-0.27286 0.0992,-0.16743 0.0992,-0.40307 0,-0.20464 -0.0744,-0.33487 -0.0744,-0.13642 -0.23564,-0.24184 -0.16123,-0.10542 -0.41548,-0.19844 -0.25425,-0.093 -0.60772,-0.21704 -0.35346,-0.12402 -0.68213,-0.25425 -0.32246,-0.13642 -0.5705,-0.32246 -0.24805,-0.19224 -0.39688,-0.45889 -0.14883,-0.26665 -0.14883,-0.65112 0,-0.42168 0.17364,-0.72554 0.17363,-0.31005 0.45888,-0.50849 0.29146,-0.19844 0.66353,-0.29146 0.37827,-0.093 0.78135,-0.093 0.20463,0 0.42788,0.0248 0.22324,0.0186 0.44028,0.0558 0.22324,0.0372 0.42168,0.0868 0.20464,0.0434 0.37207,0.0868 l 0.0434,1.66812 z"
       inkscape:export-xdpi="300"
       inkscape:export-ydpi="300" />
    <path
       inkscape:connector-curvature="0"
       id="path3202"
       style="font-style:normal;font-variant:normal;font-weight:normal;font-stretch:normal;font-size:12.69999981px;line-height:1.25;font-family:'Javanese Text';-inkscape-font-specification:'Javanese Text, Normal';font-variant-ligatures:normal;font-variant-caps:normal;font-variant-numeric:normal;font-feature-settings:normal;text-align:start;letter-spacing:3.96875px;word-spacing:0px;writing-mode:lr-tb;text-anchor:start;fill:#ffffff;fill-opacity:1;stroke:#ffffff;stroke-width:0.26499999;stroke-miterlimit:4;stroke-dasharray:none;stroke-opacity:1"
       d="m 74.318568,157.66919 q -0.204638,0.93638 -0.768945,1.41387 -0.558105,0.47749 -1.451074,0.47749 -0.620117,0 -1.116211,-0.21704 -0.489893,-0.22324 -0.837158,-0.60151 -0.341065,-0.37828 -0.5271,-0.88057 -0.186035,-0.5023 -0.186035,-1.0666 0,-0.58911 0.192236,-1.11001 0.198438,-0.5209 0.558106,-0.90537 0.359668,-0.39068 0.861963,-0.61392 0.508496,-0.22944 1.128613,-0.22944 0.440283,0 0.806152,0.11782 0.372071,0.11162 0.638721,0.30386 0.26665,0.19223 0.415478,0.44648 0.148829,0.25425 0.148829,0.5333 0,0.19844 -0.06821,0.33486 -0.06821,0.13023 -0.173633,0.21084 -0.09922,0.0806 -0.223242,0.11783 -0.124024,0.0372 -0.235645,0.0372 -0.303857,0 -0.483691,-0.19223 -0.173633,-0.19224 -0.173633,-0.45889 0,-0.16123 0.08062,-0.34726 0.08061,-0.18604 0.248047,-0.34727 -0.21084,-0.16743 -0.489893,-0.22324 -0.272851,-0.062 -0.502294,-0.062 -0.291456,0 -0.564307,0.0806 -0.26665,0.0744 -0.47749,0.32866 -0.204639,0.24805 -0.328662,0.71314 -0.124024,0.46509 -0.124024,1.24023 0,0.71934 0.111621,1.16582 0.117823,0.44649 0.31626,0.70074 0.204639,0.24804 0.47749,0.34106 0.272852,0.0868 0.595313,0.0868 0.291455,0 0.551904,-0.0806 0.260449,-0.0806 0.471289,-0.25425 0.217041,-0.17983 0.378272,-0.46509 0.167431,-0.29145 0.26665,-0.71313 0.124023,0.0124 0.248047,0.0434 0.124023,0.031 0.235644,0.0744 z"
       inkscape:export-xdpi="300"
       inkscape:export-ydpi="300" />
    <path
       inkscape:connector-curvature="0"
       id="path3204"
       style="font-style:normal;font-variant:normal;font-weight:normal;font-stretch:normal;font-size:12.69999981px;line-height:1.25;font-family:'Javanese Text';-inkscape-font-specification:'Javanese Text, Normal';font-variant-ligatures:normal;font-variant-caps:normal;font-variant-numeric:normal;font-feature-settings:normal;text-align:start;letter-spacing:3.96875px;word-spacing:0px;writing-mode:lr-tb;text-anchor:start;fill:#ffffff;fill-opacity:1;stroke:#ffffff;stroke-width:0.26499999;stroke-miterlimit:4;stroke-dasharray:none;stroke-opacity:1"
       d="m 79.254702,156.79483 q 0,-0.58291 0.179834,-1.10381 0.186035,-0.5209 0.539502,-0.91157 0.353466,-0.39068 0.861962,-0.61392 0.514698,-0.22944 1.165821,-0.22944 0.644922,0 1.141015,0.22324 0.496094,0.21704 0.830957,0.59531 0.334864,0.37827 0.502295,0.88057 0.173633,0.50229 0.173633,1.0666 0,0.58291 -0.186035,1.10381 -0.179834,0.5209 -0.533301,0.91157 -0.353467,0.39067 -0.868164,0.62012 -0.508496,0.22324 -1.159619,0.22324 -0.644922,0 -1.141016,-0.21704 -0.496093,-0.22324 -0.830957,-0.60151 -0.334863,-0.37828 -0.508496,-0.88057 -0.167431,-0.5023 -0.167431,-1.0666 z m 1.227832,-0.0248 q 0,0.67593 0.09302,1.12241 0.09302,0.44649 0.272852,0.71314 0.179834,0.26665 0.452685,0.37827 0.272852,0.10542 0.638721,0.10542 0.359668,0 0.638721,-0.11162 0.279052,-0.11162 0.465088,-0.37827 0.186035,-0.27285 0.279052,-0.72554 0.09922,-0.45889 0.09922,-1.14722 0,-0.67592 -0.09302,-1.12241 -0.09302,-0.44648 -0.272851,-0.71313 -0.179834,-0.26665 -0.458887,-0.37207 -0.272851,-0.11162 -0.632519,-0.11162 -0.365869,0 -0.644922,0.11162 -0.272852,0.11162 -0.458887,0.38447 -0.186035,0.26665 -0.285254,0.72554 -0.09302,0.45268 -0.09302,1.14101 z"
       inkscape:export-xdpi="300"
       inkscape:export-ydpi="300" />
    <path
       inkscape:connector-curvature="0"
       id="path3206"
       style="font-style:normal;font-variant:normal;font-weight:normal;font-stretch:normal;font-size:12.69999981px;line-height:1.25;font-family:'Javanese Text';-inkscape-font-specification:'Javanese Text, Normal';font-variant-ligatures:normal;font-variant-caps:normal;font-variant-numeric:normal;font-feature-settings:normal;text-align:start;letter-spacing:3.96875px;word-spacing:0px;writing-mode:lr-tb;text-anchor:start;fill:#ffffff;fill-opacity:1;stroke:#ffffff;stroke-width:0.26499999;stroke-miterlimit:4;stroke-dasharray:none;stroke-opacity:1"
       d="m 91.533022,158.89082 h 0.837158 v 0.4961 h -2.883545 v -0.4961 h 0.930176 v -4.29121 h -0.930176 v -0.49609 h 2.046387 v 0.89917 h 0.02481 q 0.254248,-0.5147 0.682128,-0.78755 0.427881,-0.27905 1.103809,-0.27905 0.849561,0 1.265039,0.44028 0.415479,0.43408 0.415479,1.24644 v 3.26801 h 0.89917 v 0.4961 h -2.85254 v -0.4961 h 0.837159 v -3.44165 q 0,-0.48989 -0.229444,-0.71933 -0.229443,-0.23565 -0.644922,-0.23565 -0.316259,0 -0.589111,0.13643 -0.272851,0.13022 -0.47749,0.40928 -0.198438,0.27905 -0.31626,0.71313 -0.117822,0.43408 -0.117822,1.02939 z"
       inkscape:export-xdpi="300"
       inkscape:export-ydpi="300" />
    <path
       inkscape:connector-curvature="0"
       id="path3208"
       style="font-style:normal;font-variant:normal;font-weight:normal;font-stretch:normal;font-size:12.69999981px;line-height:1.25;font-family:'Javanese Text';-inkscape-font-specification:'Javanese Text, Normal';font-variant-ligatures:normal;font-variant-caps:normal;font-variant-numeric:normal;font-feature-settings:normal;text-align:start;letter-spacing:3.96875px;word-spacing:0px;writing-mode:lr-tb;text-anchor:start;fill:#ffffff;fill-opacity:1;stroke:#ffffff;stroke-width:0.26499999;stroke-miterlimit:4;stroke-dasharray:none;stroke-opacity:1"
       d="m 104.18961,155.85845 q -0.031,-0.40308 -0.13642,-0.68213 -0.0992,-0.27905 -0.27285,-0.45268 -0.17364,-0.17364 -0.42168,-0.24805 -0.24185,-0.0806 -0.55811,-0.0806 -0.24184,0 -0.44648,0.0496 -0.20464,0.0434 -0.35347,0.14263 -0.14883,0.093 -0.23564,0.24805 -0.0806,0.15503 -0.0806,0.37207 0,0.21704 0.0744,0.35967 0.0806,0.13642 0.25425,0.24804 0.17984,0.10542 0.45269,0.20464 0.27905,0.0992 0.68213,0.23565 0.32246,0.11162 0.63872,0.23564 0.31626,0.12402 0.5643,0.31006 0.25425,0.18603 0.40928,0.45268 0.15503,0.26045 0.15503,0.63872 0,0.42789 -0.19224,0.74415 -0.19223,0.31625 -0.50849,0.52089 -0.31626,0.20464 -0.71934,0.30386 -0.40307,0.0992 -0.82475,0.0992 -0.22325,0 -0.47749,-0.0248 -0.24805,-0.0248 -0.4961,-0.0682 -0.24184,-0.0434 -0.46509,-0.0992 -0.21704,-0.062 -0.38447,-0.12402 l -0.0434,-1.79834 h 0.42788 q 0.031,0.47129 0.13023,0.79375 0.10542,0.31626 0.28525,0.5085 0.18604,0.19223 0.44649,0.27285 0.26665,0.0806 0.62011,0.0806 0.26666,0 0.4899,-0.0434 0.22944,-0.0496 0.39687,-0.14882 0.16743,-0.10542 0.26045,-0.27285 0.0992,-0.16744 0.0992,-0.40308 0,-0.20464 -0.0744,-0.33486 -0.0744,-0.13643 -0.23565,-0.24185 -0.16123,-0.10542 -0.41548,-0.19844 -0.25424,-0.093 -0.60771,-0.21704 -0.35347,-0.12402 -0.68213,-0.25425 -0.32246,-0.13642 -0.57051,-0.32246 -0.24805,-0.19223 -0.39687,-0.45888 -0.14883,-0.26665 -0.14883,-0.65113 0,-0.42168 0.17363,-0.72553 0.17363,-0.31006 0.45889,-0.5085 0.29145,-0.19844 0.66352,-0.29146 0.37827,-0.093 0.78135,-0.093 0.20464,0 0.42788,0.0248 0.22324,0.0186 0.44029,0.0558 0.22324,0.0372 0.42167,0.0868 0.20464,0.0434 0.37208,0.0868 l 0.0434,1.66812 z"
       inkscape:export-xdpi="300"
       inkscape:export-ydpi="300" />
    <path
       inkscape:connector-curvature="0"
       id="path3210"
       style="font-style:normal;font-variant:normal;font-weight:normal;font-stretch:normal;font-size:12.69999981px;line-height:1.25;font-family:'Javanese Text';-inkscape-font-specification:'Javanese Text, Normal';font-variant-ligatures:normal;font-variant-caps:normal;font-variant-numeric:normal;font-feature-settings:normal;text-align:start;letter-spacing:3.96875px;word-spacing:0px;writing-mode:lr-tb;text-anchor:start;fill:#ffffff;fill-opacity:1;stroke:#ffffff;stroke-width:0.26499999;stroke-miterlimit:4;stroke-dasharray:none;stroke-opacity:1"
       d="m 109.88849,156.79483 q 0,-0.58291 0.17983,-1.10381 0.18604,-0.5209 0.5395,-0.91157 0.35347,-0.39068 0.86197,-0.61392 0.51469,-0.22944 1.16582,-0.22944 0.64492,0 1.14101,0.22324 0.4961,0.21704 0.83096,0.59531 0.33486,0.37827 0.5023,0.88057 0.17363,0.50229 0.17363,1.0666 0,0.58291 -0.18604,1.10381 -0.17983,0.5209 -0.5333,0.91157 -0.35346,0.39067 -0.86816,0.62012 -0.5085,0.22324 -1.15962,0.22324 -0.64492,0 -1.14102,-0.21704 -0.49609,-0.22324 -0.83095,-0.60151 -0.33487,-0.37828 -0.5085,-0.88057 -0.16743,-0.5023 -0.16743,-1.0666 z m 1.22783,-0.0248 q 0,0.67593 0.093,1.12241 0.093,0.44649 0.27285,0.71314 0.17983,0.26665 0.45269,0.37827 0.27285,0.10542 0.63872,0.10542 0.35966,0 0.63872,-0.11162 0.27905,-0.11162 0.46508,-0.37827 0.18604,-0.27285 0.27906,-0.72554 0.0992,-0.45889 0.0992,-1.14722 0,-0.67592 -0.093,-1.12241 -0.093,-0.44648 -0.27285,-0.71313 -0.17984,-0.26665 -0.45889,-0.37207 -0.27285,-0.11162 -0.63252,-0.11162 -0.36587,0 -0.64492,0.11162 -0.27285,0.11162 -0.45889,0.38447 -0.18603,0.26665 -0.28525,0.72554 -0.093,0.45268 -0.093,1.14101 z"
       inkscape:export-xdpi="300"
       inkscape:export-ydpi="300" />
    <path
       inkscape:connector-curvature="0"
       id="path3212"
       style="font-style:normal;font-variant:normal;font-weight:normal;font-stretch:normal;font-size:12.69999981px;line-height:1.25;font-family:'Javanese Text';-inkscape-font-specification:'Javanese Text, Normal';font-variant-ligatures:normal;font-variant-caps:normal;font-variant-numeric:normal;font-feature-settings:normal;text-align:start;letter-spacing:3.96875px;word-spacing:0px;writing-mode:lr-tb;text-anchor:start;fill:#ffffff;fill-opacity:1;stroke:#ffffff;stroke-width:0.26499999;stroke-miterlimit:4;stroke-dasharray:none;stroke-opacity:1"
       d="m 125.19298,157.66919 q -0.20464,0.93638 -0.76894,1.41387 -0.55811,0.47749 -1.45108,0.47749 -0.62012,0 -1.11621,-0.21704 -0.48989,-0.22324 -0.83716,-0.60151 -0.34106,-0.37828 -0.5271,-0.88057 -0.18603,-0.5023 -0.18603,-1.0666 0,-0.58911 0.19223,-1.11001 0.19844,-0.5209 0.55811,-0.90537 0.35967,-0.39068 0.86196,-0.61392 0.5085,-0.22944 1.12862,-0.22944 0.44028,0 0.80615,0.11782 0.37207,0.11162 0.63872,0.30386 0.26665,0.19223 0.41548,0.44648 0.14883,0.25425 0.14883,0.5333 0,0.19844 -0.0682,0.33486 -0.0682,0.13023 -0.17363,0.21084 -0.0992,0.0806 -0.22324,0.11783 -0.12403,0.0372 -0.23565,0.0372 -0.30385,0 -0.48369,-0.19223 -0.17363,-0.19224 -0.17363,-0.45889 0,-0.16123 0.0806,-0.34726 0.0806,-0.18604 0.24805,-0.34727 -0.21084,-0.16743 -0.48989,-0.22324 -0.27285,-0.062 -0.5023,-0.062 -0.29145,0 -0.5643,0.0806 -0.26665,0.0744 -0.47749,0.32866 -0.20464,0.24805 -0.32867,0.71314 -0.12402,0.46509 -0.12402,1.24023 0,0.71934 0.11162,1.16582 0.11782,0.44649 0.31626,0.70074 0.20464,0.24804 0.47749,0.34106 0.27285,0.0868 0.59531,0.0868 0.29146,0 0.55191,-0.0806 0.26045,-0.0806 0.47129,-0.25425 0.21704,-0.17983 0.37827,-0.46509 0.16743,-0.29145 0.26665,-0.71313 0.12402,0.0124 0.24805,0.0434 0.12402,0.031 0.23564,0.0744 z"
       inkscape:export-xdpi="300"
       inkscape:export-ydpi="300" />
    <path
       id="path3214"
       transform="scale(0.26458333)"
       style="font-style:normal;font-variant:normal;font-weight:normal;font-stretch:normal;font-size:12.69999981px;line-height:1.25;font-family:'Javanese Text';-inkscape-font-specification:'Javanese Text, Normal';font-variant-ligatures:normal;font-variant-caps:normal;font-variant-numeric:normal;font-feature-settings:normal;text-align:start;letter-spacing:3.96875px;word-spacing:0px;writing-mode:lr-tb;text-anchor:start;fill:#ffffff;fill-opacity:1;stroke:#ffffff;stroke-width:1.00157475;stroke-miterlimit:4;stroke-dasharray:none;stroke-opacity:1"
       d="m 491.12305,582.43945 v 1.875 h 3.51562 v 16.21875 h -3.51562 v 1.875 h 11.25 v -1.875 h -3.51563 v -18.09375 z"
       inkscape:export-xdpi="300"
       inkscape:export-ydpi="300"
       inkscape:connector-curvature="0" />
    <path
       inkscape:connector-curvature="0"
       id="path3216"
       style="font-style:normal;font-variant:normal;font-weight:normal;font-stretch:normal;font-size:12.69999981px;line-height:1.25;font-family:'Javanese Text';-inkscape-font-specification:'Javanese Text, Normal';font-variant-ligatures:normal;font-variant-caps:normal;font-variant-numeric:normal;font-feature-settings:normal;text-align:start;letter-spacing:3.96875px;word-spacing:0px;writing-mode:lr-tb;text-anchor:start;fill:#ffffff;fill-opacity:1;stroke:#ffffff;stroke-width:0.26499999;stroke-miterlimit:4;stroke-dasharray:none;stroke-opacity:1"
       d="m 142.96554,159.38692 q -0.26045,0.0496 -0.48369,0.062 -0.22324,0.0124 -0.35346,0.0124 -0.32867,0 -0.54571,-0.0558 -0.21084,-0.0496 -0.33486,-0.14883 -0.12402,-0.0992 -0.17983,-0.24184 -0.0558,-0.14263 -0.0682,-0.31626 h -0.031 q -0.17364,0.24184 -0.37207,0.40927 -0.19844,0.16744 -0.41548,0.26665 -0.21704,0.0992 -0.44649,0.14263 -0.22324,0.0434 -0.45268,0.0434 -0.37827,0 -0.67593,-0.10542 -0.29766,-0.0992 -0.50229,-0.28525 -0.20464,-0.18604 -0.31006,-0.44029 -0.10542,-0.26045 -0.10542,-0.57051 0,-0.86196 0.84336,-1.30844 0.84956,-0.45269 2.44326,-0.48369 0.006,-0.27906 0.006,-0.5023 0.006,-0.22324 0.006,-0.44028 0,-0.56431 -0.23564,-0.78755 -0.22945,-0.22944 -0.73174,-0.22944 -0.33487,0 -0.60152,0.0744 -0.26045,0.0744 -0.42788,0.19844 0.14883,0.14262 0.21704,0.30385 0.0744,0.15503 0.0744,0.31006 0,0.26045 -0.16743,0.43409 -0.16744,0.17363 -0.45889,0.17363 -0.12402,0 -0.24185,-0.0372 -0.11782,-0.0372 -0.20463,-0.11782 -0.0868,-0.0806 -0.14263,-0.19844 -0.0496,-0.12402 -0.0496,-0.28525 0,-0.25425 0.13642,-0.48989 0.14263,-0.24185 0.41548,-0.42789 0.27906,-0.18603 0.68833,-0.29765 0.41548,-0.11162 0.96739,-0.11162 0.44648,0 0.78754,0.0868 0.34727,0.0868 0.58292,0.29146 0.24184,0.19844 0.35966,0.5333 0.12403,0.33486 0.12403,0.83096 0,0.12402 -0.006,0.40927 0,0.27906 -0.006,0.62012 -0.006,0.34107 -0.0124,0.69453 0,0.34727 0,0.61392 0,0.27285 0.0124,0.45888 0.0124,0.17984 0.062,0.29146 0.0496,0.10542 0.14882,0.15503 0.0992,0.0434 0.27906,0.0434 0.15503,0 0.40927,-0.0372 z m -1.99057,-2.55489 q -0.67593,0.0186 -1.09141,0.10542 -0.41548,0.0806 -0.64492,0.23565 -0.22944,0.14883 -0.31006,0.36587 -0.0806,0.21704 -0.0806,0.49609 0,0.48369 0.19843,0.72554 0.20464,0.23564 0.55811,0.23564 0.19224,0 0.42788,-0.0806 0.24185,-0.0806 0.45269,-0.26045 0.21084,-0.18604 0.34726,-0.48369 0.14263,-0.29766 0.14263,-0.73794 z"
       inkscape:export-xdpi="300"
       inkscape:export-ydpi="300" />
    <path
       inkscape:connector-curvature="0"
       id="path3218"
       style="font-style:normal;font-variant:normal;font-weight:normal;font-stretch:normal;font-size:12.69999981px;line-height:1.25;font-family:'Javanese Text';-inkscape-font-specification:'Javanese Text, Normal';font-variant-ligatures:normal;font-variant-caps:normal;font-variant-numeric:normal;font-feature-settings:normal;text-align:start;letter-spacing:3.96875px;word-spacing:0px;writing-mode:lr-tb;text-anchor:start;fill:#ffffff;fill-opacity:1;stroke:#ffffff;stroke-width:0.26499999;stroke-miterlimit:4;stroke-dasharray:none;stroke-opacity:1"
       d="m 151.49835,158.14668 q -0.16743,0.72554 -0.5519,1.07281 -0.38448,0.34106 -1.0604,0.34106 -0.35347,0 -0.63872,-0.0868 -0.27906,-0.0868 -0.4775,-0.27285 -0.19843,-0.19223 -0.30385,-0.48369 -0.10542,-0.29766 -0.10542,-0.71934 v -3.39824 h -0.93018 v -0.49609 h 0.93018 v -1.20303 l 1.11621,-0.18603 v 1.38906 h 1.6123 v 0.49609 h -1.6123 v 3.53467 q 0,0.25425 0.0434,0.41548 0.0496,0.16123 0.13642,0.25425 0.0868,0.093 0.20464,0.13022 0.11782,0.031 0.26665,0.031 0.19844,0 0.34107,-0.0558 0.14262,-0.062 0.24804,-0.17984 0.11162,-0.12402 0.18604,-0.30385 0.0806,-0.17984 0.14883,-0.41548 0.11782,0.0186 0.22944,0.0496 0.11162,0.031 0.21704,0.0868 z"
       inkscape:export-xdpi="300"
       inkscape:export-ydpi="300" />
    <path
       inkscape:connector-curvature="0"
       id="path3220"
       style="font-style:normal;font-variant:normal;font-weight:normal;font-stretch:normal;font-size:12.69999981px;line-height:1.25;font-family:'Javanese Text';-inkscape-font-specification:'Javanese Text, Normal';font-variant-ligatures:normal;font-variant-caps:normal;font-variant-numeric:normal;font-feature-settings:normal;text-align:start;letter-spacing:3.96875px;word-spacing:0px;writing-mode:lr-tb;text-anchor:start;fill:#ffffff;fill-opacity:1;stroke:#ffffff;stroke-width:0.26499999;stroke-miterlimit:4;stroke-dasharray:none;stroke-opacity:1"
       d="m 161.07296,157.7064 q -0.19844,0.89917 -0.76895,1.37666 -0.5705,0.47749 -1.48208,0.47749 -0.62631,0 -1.11621,-0.21704 -0.48989,-0.22324 -0.83095,-0.60151 -0.34107,-0.37828 -0.5209,-0.88057 -0.17984,-0.5085 -0.17984,-1.07901 0,-0.58291 0.18604,-1.1038 0.18603,-0.5209 0.5271,-0.90537 0.34726,-0.38448 0.82475,-0.60772 0.4837,-0.22944 1.07901,-0.22944 0.5457,0 0.97978,0.19223 0.43409,0.19224 0.73794,0.53951 0.30386,0.34106 0.46509,0.81855 0.16743,0.47749 0.17984,1.048 h -3.73931 q -0.006,0.10542 -0.006,0.14262 0,0.031 0,0.0372 0,0.73174 0.10542,1.19063 0.11162,0.45888 0.30385,0.71933 0.19844,0.25425 0.46509,0.34727 0.27285,0.093 0.60152,0.093 0.30385,0 0.5705,-0.0806 0.27286,-0.0806 0.4899,-0.25425 0.21704,-0.17983 0.37827,-0.45888 0.16743,-0.28526 0.26665,-0.68213 0.12402,0.0124 0.24805,0.0434 0.12402,0.031 0.23564,0.0744 z m -1.17202,-1.65571 q -0.0186,-0.5147 -0.11162,-0.83096 -0.0868,-0.32246 -0.23565,-0.5023 -0.14883,-0.17983 -0.35346,-0.24184 -0.19844,-0.0682 -0.44029,-0.0682 -0.25425,0 -0.47749,0.0744 -0.21704,0.0744 -0.39067,0.26045 -0.17363,0.18603 -0.29146,0.50229 -0.11162,0.31626 -0.15503,0.80616 z"
       inkscape:export-xdpi="300"
       inkscape:export-ydpi="300" />
  </g>
</svg>
