<?xml version="1.0" encoding="UTF-8" standalone="no"?>
<!-- Created with Inkscape (http://www.inkscape.org/) -->

<svg
   xmlns:dc="http://purl.org/dc/elements/1.1/"
   xmlns:cc="http://creativecommons.org/ns#"
   xmlns:rdf="http://www.w3.org/1999/02/22-rdf-syntax-ns#"
   xmlns:svg="http://www.w3.org/2000/svg"
   xmlns="http://www.w3.org/2000/svg"
   xmlns:sodipodi="http://sodipodi.sourceforge.net/DTD/sodipodi-0.dtd"
   xmlns:inkscape="http://www.inkscape.org/namespaces/inkscape"
   width="109.75252mm"
   height="52.941982mm"
   viewBox="0 0 109.75252 52.941982"
   version="1.1"
   id="svg1416"
   inkscape:version="0.92.2 (5c3e80d, 2017-08-06)"
   sodipodi:docname="designers-consociate-logo-2020.svg">
  <defs
     id="defs1410" />
  <sodipodi:namedview
     id="base"
     pagecolor="#ffffff"
     bordercolor="#666666"
     borderopacity="1.0"
     inkscape:pageopacity="0.0"
     inkscape:pageshadow="2"
     inkscape:zoom="0.35"
     inkscape:cx="-351.85147"
     inkscape:cy="354.23428"
     inkscape:document-units="mm"
     inkscape:current-layer="layer1"
     showgrid="false"
     fit-margin-top="0"
     fit-margin-left="0"
     fit-margin-right="0"
     fit-margin-bottom="0"
     inkscape:window-width="1920"
     inkscape:window-height="986"
     inkscape:window-x="-11"
     inkscape:window-y="-11"
     inkscape:window-maximized="1" />
  <metadata
     id="metadata1413">
    <rdf:RDF>
      <cc:Work
         rdf:about="">
        <dc:format>image/svg+xml</dc:format>
        <dc:type
           rdf:resource="http://purl.org/dc/dcmitype/StillImage" />
        <dc:title></dc:title>
      </cc:Work>
    </rdf:RDF>
  </metadata>
  <g
     inkscape:label="Layer 1"
     inkscape:groupmode="layer"
     id="layer1"
     transform="translate(-51.89463,-189.61584)">
    <path
       style="fill:#ffffff;stroke-width:0.08466666"
       d="m 72.849628,242.51395 c -0.781574,-0.17466 -1.069489,-0.29951 -1.144271,-0.4962 -0.10593,-0.27861 0.02839,-0.61397 0.284998,-0.71153 0.235315,-0.0895 1.488341,0.15328 1.700625,0.32946 0.07277,0.0604 0.132315,0.23634 0.132315,0.39098 0,0.43946 -0.366625,0.62294 -0.973667,0.48729 z m 13.256478,-1.18161 c -0.09651,-0.12269 -0.175478,-0.27297 -0.175478,-0.33394 0,-0.2362 0.408423,-0.53464 1.035594,-0.75672 0.619578,-0.21939 0.665929,-0.22436 0.86649,-0.093 0.116542,0.0764 0.235749,0.23389 0.264905,0.35005 0.08983,0.35791 -0.137937,0.57566 -0.865913,0.82787 -0.820655,0.28431 -0.906099,0.28474 -1.125598,0.006 z m -26.48434,-5.56187 c -0.596102,-0.5788 -0.687625,-0.84372 -0.400931,-1.16051 0.267435,-0.29552 0.542636,-0.20778 1.161627,0.37032 0.624779,0.58351 0.715179,0.84347 0.402167,1.15648 -0.300199,0.3002 -0.56108,0.21803 -1.162863,-0.36629 z m 38.243117,-2.55922 c -0.208426,-0.25114 -0.125457,-0.59549 0.257216,-1.06755 0.477177,-0.58864 0.660734,-0.74827 0.860423,-0.74827 0.188253,0 0.579438,0.35914 0.579438,0.53197 0,0.14484 -0.415328,0.7738 -0.752919,1.1402 -0.284041,0.30827 -0.748844,0.37899 -0.944158,0.14365 z m -26.642358,-7.83646 c -0.568064,-0.21837 -1.158494,-0.79391 -1.447897,-1.41137 -0.1988,-0.42416 -0.226999,-0.5895 -0.226999,-1.33099 0,-0.73787 0.02867,-0.90781 0.223111,-1.32249 0.437651,-0.93338 1.18761,-1.51575 2.150109,-1.66962 1.410048,-0.22543 2.665501,0.47918 2.679644,1.50391 0.0056,0.4069 -0.124736,0.6486 -0.436836,0.80999 -0.64699,0.33457 -1.357039,-0.13079 -1.246412,-0.81689 0.02509,-0.15559 0.05824,-0.3591 0.07367,-0.45223 0.02525,-0.15241 -0.02569,-0.17188 -0.50948,-0.19476 -0.661697,-0.0313 -0.888678,0.0971 -1.142556,0.6464 -0.15619,0.33793 -0.18258,0.54799 -0.18258,1.45336 0,0.91297 0.02569,1.11396 0.187004,1.46335 0.139215,0.30153 0.262932,0.43676 0.484114,0.52917 0.870302,0.36364 1.716186,-0.076 2.00103,-1.04002 0.115576,-0.39115 0.138425,-0.40132 0.608685,-0.27072 0.396635,0.11015 0.408863,0.27017 0.07407,0.96922 -0.283431,0.59179 -0.581173,0.89621 -1.111234,1.13615 -0.520456,0.23559 -1.56123,0.23441 -2.177437,-0.002 z m 10.051436,0.10411 c -0.87541,-0.28646 -1.518452,-0.92542 -1.778431,-1.76713 -0.499373,-1.61679 0.144294,-3.24716 1.52694,-3.86765 0.641681,-0.28797 1.581068,-0.32366 2.293191,-0.0871 0.694751,0.23076 1.359383,0.93437 1.591017,1.68431 0.4862,1.57413 -0.08794,3.17033 -1.37994,3.83647 -0.362427,0.18686 -0.562673,0.2268 -1.236777,0.24668 -0.442383,0.013 -0.899583,-0.007 -1.016,-0.0455 z m 1.730474,-1.02126 c 0.341536,-0.32086 0.428526,-0.70856 0.428526,-1.90988 0,-0.97256 -0.02232,-1.14596 -0.19175,-1.48981 -0.225735,-0.45812 -0.457297,-0.58452 -1.070815,-0.58452 -0.841877,0 -1.144229,0.4535 -1.213612,1.82033 -0.05791,1.14077 0.07434,1.76377 0.455284,2.14471 0.278193,0.27819 0.306183,0.28668 0.834137,0.25307 0.426682,-0.0272 0.592688,-0.0784 0.75823,-0.2339 z m 18.548985,0.96363 c -0.27841,-0.0697 -0.53159,-0.15419 -0.56263,-0.18778 -0.031,-0.0336 -0.072,-0.52779 -0.0911,-1.09823 l -0.0347,-1.03716 h 0.4007 0.4007 l 0.0572,0.45766 c 0.0681,0.5447 0.29664,0.9548 0.59555,1.06845 0.3242,0.12326 1.1128,0.0996 1.38573,-0.0415 0.27178,-0.14054 0.39188,-0.47568 0.25926,-0.72349 -0.10775,-0.20132 -0.31143,-0.30487 -1.3425,-0.68247 -1.22843,-0.44988 -1.70504,-0.95474 -1.70504,-1.8061 0,-1.24162 1.12967,-1.93006 2.85042,-1.73709 0.33556,0.0376 0.76495,0.11012 0.95418,0.16107 l 0.34407,0.0926 v 1.01738 1.01737 l -0.40152,-0.0258 -0.40151,-0.0258 -0.0557,-0.39187 c -0.10829,-0.76233 -0.39169,-1.01723 -1.13098,-1.01723 -0.61884,0 -0.889,0.16753 -0.889,0.55126 0,0.16174 0.063,0.33668 0.14817,0.41168 0.0815,0.0717 0.60347,0.29514 1.15996,0.49647 1.18599,0.42907 1.6551,0.7953 1.82303,1.42322 0.20254,0.75734 -0.15293,1.48029 -0.94081,1.91344 -0.41611,0.22877 -0.53369,0.25169 -1.38602,0.27028 -0.60915,0.0133 -1.10644,-0.0235 -1.43753,-0.10641 z m 10.36988,0.0576 c -1.56897,-0.51341 -2.31647,-2.18386 -1.76958,-3.95448 0.15093,-0.48867 0.25635,-0.65305 0.6985,-1.08923 0.64784,-0.63908 1.13093,-0.83041 2.08622,-0.82624 1.74653,0.008 2.8849,1.29357 2.77811,3.13827 -0.0657,1.13524 -0.62719,2.0531 -1.54959,2.53317 -0.35408,0.18428 -0.5549,0.22421 -1.22766,0.24405 -0.44239,0.013 -0.89959,-0.007 -1.016,-0.0455 z m 1.73433,-1.03029 c 0.27178,-0.27394 0.467,-1.05655 0.467,-1.87214 0,-0.95977 -0.13736,-1.49534 -0.46844,-1.82642 -0.2529,-0.2529 -0.32165,-0.27662 -0.80156,-0.27662 -0.47991,0 -0.54866,0.0237 -0.80156,0.27662 -0.33236,0.33236 -0.46844,0.86689 -0.46844,1.84005 0,0.98344 0.13533,1.50693 0.47822,1.84982 0.27705,0.27704 0.30442,0.28525 0.83766,0.2513 0.44473,-0.0283 0.59103,-0.0752 0.75712,-0.24261 z m 8.5749,0.97665 c -0.51215,-0.18812 -1.04202,-0.59972 -1.32816,-1.03172 -0.77606,-1.17164 -0.65641,-2.86149 0.27567,-3.89318 1.15648,-1.28009 3.52455,-1.18458 4.1958,0.16922 0.18129,0.36564 0.19176,0.44269 0.10122,0.74489 -0.2358,0.78701 -1.31368,0.88892 -1.6185,0.15302 -0.0856,-0.20666 -0.0899,-0.3486 -0.0186,-0.6156 0.0509,-0.19085 0.0743,-0.37658 0.052,-0.41273 -0.0223,-0.0361 -0.28088,-0.0657 -0.57454,-0.0657 -0.9861,0 -1.278,0.4947 -1.27393,2.159 0.003,1.24226 0.17504,1.74396 0.66863,1.95019 0.86312,0.36064 1.76835,-0.10128 2.01646,-1.02895 0.10796,-0.40362 0.12515,-0.41179 0.59325,-0.28179 0.36219,0.10059 0.38429,0.1927 0.18591,0.77493 -0.18078,0.53056 -0.66428,1.06735 -1.17603,1.30565 -0.34188,0.15919 -0.56438,0.19828 -1.10537,0.19418 -0.37254,-0.003 -0.81973,-0.0575 -0.99377,-0.12138 z m 16.35822,-0.0623 c -0.86119,-0.43506 -1.08724,-1.54289 -0.48209,-2.36265 0.33324,-0.45143 1.29963,-0.82961 2.45313,-0.96 l 0.48684,-0.055 v -0.58657 c 0,-0.79834 -0.13892,-0.94304 -0.87177,-0.90801 -0.47157,0.0225 -0.52237,0.0424 -0.49722,0.19444 0.0154,0.0931 0.0336,0.31625 0.0404,0.49581 0.0349,0.92044 -1.42843,1.00076 -1.5997,0.0878 -0.12102,-0.64506 0.46869,-1.32549 1.36064,-1.56997 0.56291,-0.15429 1.65834,-0.11468 2.08828,0.0755 0.84131,0.37215 1.05246,0.98776 0.98037,2.85819 -0.0251,0.65193 -0.02,1.35678 0.0114,1.56633 l 0.0571,0.381 0.4006,-0.0137 0.40059,-0.0137 v 0.406 c 0,0.47795 -0.0553,0.50744 -0.95521,0.50926 -0.60988,0.001 -1.09413,-0.14758 -1.22163,-0.3754 -0.0701,-0.12527 -0.0986,-0.12179 -0.30002,0.0367 -0.59948,0.47155 -1.67056,0.57816 -2.35168,0.23407 z m 1.87386,-0.93302 c 0.36957,-0.24689 0.58372,-0.67806 0.58388,-1.17559 v -0.39411 l -0.35983,0.0426 c -0.60111,0.0712 -0.9953,0.19571 -1.16863,0.36905 -0.21543,0.21542 -0.231,0.96746 -0.0248,1.19536 0.19192,0.21208 0.62054,0.19556 0.96919,-0.0374 z m 8.83482,1.00865 c -0.38246,-0.17284 -0.68851,-0.58684 -0.79259,-1.07216 -0.0507,-0.23649 -0.0922,-1.17105 -0.0922,-2.0768 v -1.64684 h -0.4701 -0.47008 l 0.0256,-0.4445 0.0256,-0.4445 0.44073,-0.0255 0.44072,-0.0255 0.025,-0.56556 0.0249,-0.56556 0.59267,-0.10228 c 0.95738,-0.16521 0.889,-0.20864 0.889,0.56466 v 0.67733 h 0.80433 0.80433 v 0.46567 0.46566 h -0.80433 -0.80433 v 1.8015 c 0,1.49346 0.0225,1.83367 0.1318,1.98966 0.27124,0.38726 0.79372,0.15337 0.99816,-0.44682 0.1034,-0.30357 0.14076,-0.33558 0.36053,-0.30889 0.34449,0.0419 0.54165,0.1633 0.54068,0.33303 -0.002,0.30467 -0.41354,1.01874 -0.72421,1.25576 -0.28312,0.21602 -0.39858,0.24663 -1.00394,0.26617 -0.44391,0.0143 -0.77466,-0.0189 -0.94222,-0.0946 z m 8.8419,-0.002 c -0.72571,-0.25933 -1.20091,-0.68483 -1.57147,-1.40711 -0.21939,-0.42764 -0.2389,-0.54173 -0.2389,-1.397 0,-0.83046 0.0243,-0.98312 0.2242,-1.40953 0.54204,-1.15616 1.70614,-1.78916 2.92813,-1.59223 1.21136,0.19522 1.98817,1.0784 2.11166,2.40081 l 0.0522,0.55862 h -1.88718 -1.8872 l 0.0487,0.58132 c 0.0628,0.749 0.23497,1.1507 0.58456,1.36384 0.75997,0.46334 1.85604,-0.021 2.1003,-0.92805 0.0784,-0.29106 0.12441,-0.33961 0.32106,-0.33862 0.3809,0.002 0.61057,0.0951 0.61057,0.24763 0,0.3124 -0.27844,0.93462 -0.57139,1.27686 -0.45642,0.53323 -1.00742,0.75937 -1.84161,0.75581 -0.37253,-0.002 -0.81517,-0.0522 -0.98363,-0.11235 z m 1.78796,-3.99216 c 0,-0.31503 -0.21453,-0.77454 -0.4106,-0.87947 -0.2501,-0.13385 -0.8346,-0.11163 -1.06686,0.0405 -0.19468,0.12756 -0.46987,0.67107 -0.46987,0.92802 0,0.10334 0.17054,0.12528 0.97367,0.12528 h 0.97366 z m -70.357996,3.51638 v -0.42335 h 0.465667 0.465666 v -1.94733 -1.94734 h -0.465666 -0.465667 v -0.46799 -0.46799 l 1.2065,0.0235 c 1.173744,0.0229 1.207225,0.0286 1.23323,0.21151 l 0.02673,0.18802 0.319452,-0.2114 c 0.40915,-0.27076 1.153502,-0.39555 1.719354,-0.28824 0.235682,0.0447 0.442252,0.0813 0.459046,0.0813 0.01679,0 0.182825,0.13759 0.36896,0.30575 0.515516,0.46574 0.593394,0.83876 0.593394,2.84228 v 1.67797 h 0.423334 0.423333 v 0.42333 0.42334 H 94.73596 93.127294 v -0.42334 -0.42333 h 0.427916 0.427916 l -0.02575,-1.86963 c -0.0292,-2.12015 -0.02566,-2.1097 -0.716319,-2.1097 -0.282146,0 -0.426245,0.0565 -0.654059,0.25654 -0.460549,0.40437 -0.560372,0.8289 -0.560372,2.38321 v 1.33958 h 0.381 0.381 v 0.42333 0.42334 H 91.17996 89.571293 Z m 40.470666,0 v -0.42335 h 0.46567 0.46566 v -1.94733 -1.94734 h -0.46566 -0.46567 v -0.46799 -0.46799 l 1.2065,0.0235 1.2065,0.0235 0.0225,2.39184 0.0225,2.39183 h 0.46435 0.46435 v 0.42333 0.42334 h -1.69334 -1.69333 z m -77.665851,-0.86785 c -0.152977,-0.11278 -0.481479,-1.14344 -0.481479,-1.51061 0,-0.12099 0.06967,-0.28303 0.154833,-0.3601 0.188663,-0.17074 0.635036,-0.18358 0.769034,-0.0221 0.119256,0.14369 0.430799,1.24205 0.430799,1.5188 0,0.39518 -0.53415,0.62398 -0.873187,0.37403 z m 56.372191,-6.95077 c -0.5384,-0.17742 -0.84457,-0.36344 -1.12626,-0.68426 -0.47897,-0.54552 -0.43967,-1.2088 0.10279,-1.73457 0.25188,-0.24413 0.30806,-0.26491 0.47484,-0.17565 0.15101,0.0808 0.20375,0.0781 0.26148,-0.0133 0.0767,-0.12143 0.0159,-0.18345 -0.41036,-0.41906 -0.57336,-0.3169 -0.68468,-1.30449 -0.23378,-2.0739 l 0.22312,-0.38073 -0.19625,-0.39844 c -0.27712,-0.56263 -0.27445,-1.51049 0.006,-2.04945 0.27019,-0.51968 0.48598,-0.73966 0.98331,-1.00243 0.3668,-0.1938 0.5251,-0.2237 1.18533,-0.22385 0.62474,-1.7e-4 0.82544,0.0336 1.11418,0.18754 l 0.35218,0.18771 0.50896,-0.2625 c 0.40661,-0.2097 0.56917,-0.2512 0.80832,-0.20633 0.57493,0.10786 0.82325,0.73222 0.46989,1.18144 -0.21891,0.2783 -0.63641,0.29909 -0.95611,0.0476 -0.26333,-0.20713 -0.26026,-0.21779 -0.0852,0.29603 0.0944,0.27721 0.12467,0.56948 0.0959,0.92774 -0.0719,0.8958 -0.50525,1.51831 -1.31829,1.89378 -0.45515,0.21018 -0.70248,0.22058 -2.09052,0.0879 -0.23015,-0.022 -0.25647,0.001 -0.28032,0.24798 -0.0335,0.34695 -0.0214,0.34959 1.76198,0.3841 1.22532,0.0237 1.43863,0.049 1.73567,0.20549 0.42756,0.2253 0.62075,0.43884 0.76634,0.84704 0.41204,1.15535 -0.27838,2.50429 -1.53096,2.99117 -0.6206,0.24123 -2.07746,0.31846 -2.62204,0.139 z m 1.991,-0.86797 c 0.56131,-0.16669 0.9785,-0.55956 1.06096,-0.9991 0.14021,-0.74742 -0.18751,-0.89649 -1.97246,-0.89719 l -1.2065,-4.7e-4 v 0.46567 c 0,0.25611 -0.0381,0.46566 -0.0847,0.46566 -0.11034,0 -0.10908,0.38886 0.002,0.59629 0.24222,0.45261 1.31419,0.63241 2.20073,0.36914 z m -0.18561,-4.81202 c 0.15202,-0.14775 0.26467,-0.67012 0.26599,-1.23341 0.003,-1.10317 -0.18626,-1.43933 -0.80853,-1.43933 -0.5542,0 -0.76386,0.23796 -0.84054,0.95397 -0.10707,0.99981 0.0795,1.73897 0.46736,1.8517 0.27241,0.0792 0.77212,0.007 0.91572,-0.13293 z m -39.058728,2.41248 c -0.838282,-0.20498 -1.553628,-0.89733 -1.820764,-1.76222 -0.323034,-1.04586 -0.143598,-2.35962 0.424053,-3.10477 0.767368,-1.00731 2.160215,-1.34878 3.179021,-0.77935 l 0.38039,0.2126 -0.02302,-1.58257 -0.02302,-1.58258 -0.486833,-0.0254 -0.486833,-0.0254 v -0.41911 -0.41911 h 1.27 1.27 v 4.22891 4.22891 l 0.4445,0.0256 0.444499,0.0256 0.02559,0.4445 0.02559,0.4445 h -1.232091 c -1.175647,0 -1.232091,-0.008 -1.232091,-0.16933 0,-0.2046 -0.06529,-0.21311 -0.262895,-0.0343 -0.350484,0.31718 -1.237667,0.45451 -1.896105,0.2935 z m 1.492394,-1.03212 c 0.828317,-0.57767 0.87532,-3.06946 0.07067,-3.74652 -0.311095,-0.26177 -0.737441,-0.33696 -1.147618,-0.20239 -0.249997,0.082 -0.37811,0.19772 -0.540855,0.48848 -0.199603,0.3566 -0.213259,0.4569 -0.213259,1.56633 0,1.06496 0.01922,1.22129 0.18929,1.53942 0.212643,0.39777 0.278894,0.45245 0.649986,0.53641 0.344539,0.0779 0.717403,0.01 0.991786,-0.18173 z m 9.617353,1.02453 c -1.34616,-0.33961 -2.175485,-1.59887 -2.069674,-3.14263 0.105949,-1.54575 1.119362,-2.64509 2.543753,-2.75943 1.487663,-0.11942 2.624806,0.87869 2.747877,2.4119 l 0.04248,0.5292 h -1.88632 -1.886319 l 0.05422,0.51876 c 0.129053,1.23471 0.417373,1.5981 1.267564,1.59759 0.789026,-5.1e-4 1.313925,-0.42113 1.464412,-1.17357 0.0587,-0.29349 0.141703,-0.31546 0.634307,-0.16787 0.293423,0.0879 0.320339,0.11937 0.271638,0.3175 -0.193653,0.78785 -0.661704,1.4138 -1.271469,1.70043 -0.450607,0.21181 -1.406281,0.29582 -1.91247,0.16812 z m 1.582773,-4.12513 c -0.0842,-0.46507 -0.268264,-0.77953 -0.510088,-0.87147 -0.543263,-0.20655 -1.067304,0.009 -1.30756,0.53842 -0.296185,0.65237 -0.298574,0.65055 0.855297,0.65055 h 1.019837 z m 7.839145,4.1625 c -0.116416,-0.0205 -0.444229,-0.0966 -0.728472,-0.16918 l -0.516805,-0.13193 -0.0573,-1.01382 c -0.03151,-0.5576 -0.03483,-1.05018 -0.0074,-1.09461 0.02746,-0.0444 0.214213,-0.0808 0.415,-0.0808 h 0.365067 l 0.05532,0.48897 c 0.03043,0.26894 0.128616,0.6095 0.218198,0.7568 0.36944,0.6075 1.804673,0.586 2.039081,-0.0305 0.151406,-0.39823 -0.100593,-0.61411 -1.187105,-1.01698 -1.434381,-0.53185 -1.865224,-0.96461 -1.865491,-1.87379 -4.24e-4,-1.45252 1.489449,-2.1212 3.609542,-1.62001 0.430851,0.10186 0.435133,0.10611 0.486833,0.4833 0.02869,0.2093 0.05216,0.66098 0.05216,1.00373 v 0.62318 h -0.423334 c -0.414922,0 -0.423333,-0.005 -0.423333,-0.25672 0,-0.33147 -0.182375,-0.75862 -0.41079,-0.96212 -0.428186,-0.38149 -1.539985,-0.21698 -1.655941,0.24503 -0.09793,0.3902 0.113573,0.58217 0.980879,0.89026 1.731599,0.61512 2.186519,1.01974 2.186519,1.94473 0,1.10242 -0.820673,1.77234 -2.236732,1.82587 -0.376347,0.0142 -0.779518,0.009 -0.895935,-0.0114 z m 38.688483,-0.0657 c -0.78292,-0.21115 -1.37397,-0.73848 -1.76438,-1.57415 -0.1892,-0.405 -0.21875,-0.58009 -0.21495,-1.27387 0.006,-1.02915 0.21398,-1.60156 0.80312,-2.2064 0.52142,-0.53532 1.04784,-0.77349 1.81539,-0.82135 1.43956,-0.0898 2.50376,0.87194 2.66255,2.40609 l 0.0556,0.537 h -1.89809 -1.8981 l 0.0611,0.57099 c 0.12576,1.17428 0.42901,1.54586 1.26117,1.54536 0.7758,-5.1e-4 1.29523,-0.39991 1.45276,-1.11713 0.0663,-0.30162 0.13993,-0.34233 0.49802,-0.27515 0.4205,0.0789 0.47737,0.40245 0.17819,1.01394 -0.52361,1.07023 -1.71781,1.54383 -3.01241,1.19467 z m 1.69752,-3.86886 c 0,-0.25759 -0.20588,-0.84865 -0.33691,-0.96723 -0.22527,-0.20387 -0.68444,-0.24868 -1.03733,-0.10123 -0.31945,0.13348 -0.50969,0.40792 -0.61196,0.8828 l -0.0593,0.27517 h 1.02273 c 0.66225,0 1.02273,-0.0315 1.02273,-0.0895 z m 16.15689,3.8558 c -0.95344,-0.18985 -0.91689,-0.13562 -0.91689,-1.36091 v -1.05999 l 0.40216,0.0258 0.40217,0.0258 0.062,0.49945 c 0.0747,0.6017 0.23689,0.8719 0.61916,1.03162 0.60997,0.25486 1.50835,0.0687 1.60929,-0.33346 0.12367,-0.49277 -0.0683,-0.64365 -1.48616,-1.16796 -1.27081,-0.46993 -1.78807,-1.20793 -1.52678,-2.1783 0.12812,-0.4758 0.59735,-0.98036 1.08767,-1.16957 0.48907,-0.18873 1.6819,-0.20611 2.44995,-0.0357 l 0.52916,0.1174 v 0.87051 c 0,0.47878 0.0231,0.93077 0.0514,1.00443 0.0426,0.1111 -0.0207,0.13392 -0.37139,0.13392 h -0.42278 l -0.0544,-0.36259 c -0.11718,-0.78138 -0.58884,-1.14295 -1.37534,-1.0543 -0.44763,0.0505 -0.70618,0.25923 -0.70618,0.57023 0,0.33177 0.22116,0.48515 1.22506,0.84956 1.50604,0.5467 1.91498,0.91195 1.97297,1.76221 0.0987,1.44705 -1.45603,2.24905 -3.55114,1.83185 z m -48.990818,-0.48546 0.02559,-0.4445 0.444498,-0.0256 0.4445,-0.0256 v -1.94291 -1.94291 h -0.46566 -0.46567 v -0.42333 -0.42333 h 1.22767 1.22766 v 2.37066 2.37067 h 0.46567 0.46567 v 0.46567 0.46566 h -1.69776 -1.697759 z m 17.864668,0 0.0256,-0.4445 0.4445,-0.0256 0.4445,-0.0256 v -1.94291 -1.94291 h -0.46566 -0.46567 v -0.42333 -0.42333 h 1.22767 1.22766 v 0.20817 0.20817 l 0.42572,-0.26465 c 0.35814,-0.22263 0.52951,-0.27017 1.0795,-0.2995 0.58924,-0.0314 0.69958,-0.0112 1.11769,0.20464 0.37358,0.19287 0.50479,0.32017 0.67384,0.65377 0.1998,0.39431 0.21161,0.50138 0.24496,2.2225 l 0.035,1.80823 h 0.41295 0.41296 v 0.46567 0.46566 h -1.60867 -1.60866 v -0.46566 -0.46567 h 0.42333 0.42333 l -0.008,-1.67217 c -0.005,-0.91969 -0.0348,-1.76741 -0.0671,-1.88383 -0.13917,-0.50235 -0.93336,-0.53206 -1.41256,-0.0528 -0.38572,0.38571 -0.47162,0.76099 -0.52082,2.27535 l -0.0433,1.3335 h 0.43345 0.43345 v 0.46567 0.46566 h -1.65543 -1.65542 l 0.0256,-0.4445 z m 21.16666,0 0.0256,-0.4445 0.4445,-0.0256 0.4445,-0.0256 v -1.94291 -1.94291 h -0.46567 -0.46567 v -0.42333 -0.42333 h 1.22767 1.22767 v 0.26277 0.26277 l 0.29402,-0.25815 c 0.28035,-0.24616 0.75286,-0.43524 1.09018,-0.43625 0.28109,-8.5e-4 0.73723,0.27116 0.8632,0.51474 0.32703,0.63242 0.0323,1.32326 -0.59654,1.39834 -0.43088,0.0514 -0.72364,-0.10181 -0.8979,-0.47002 l -0.13603,-0.28743 -0.21641,0.37445 c -0.33098,0.57269 -0.39954,0.95172 -0.40005,2.21172 l -8.5e-4,1.15994 0.48684,0.0254 0.48683,0.0254 0.0256,0.4445 0.0256,0.4445 h -1.74451 -1.74452 l 0.0256,-0.4445 z m -86.490611,-3.605 c -0.182632,-0.2018 -0.176155,-0.52675 0.02359,-1.18361 0.202242,-0.66505 0.295,-0.77822 0.637863,-0.77822 0.300995,0 0.553089,0.21541 0.553089,0.4726 0,0.29418 -0.33024,1.32509 -0.476114,1.48628 -0.182266,0.2014 -0.557481,0.2029 -0.73843,0.003 z m 46.71958,-8.79996 c -0.16195,-0.11453 -0.866919,-1.07603 -0.920454,-1.2554 -0.03437,-0.11516 0.01035,-0.25758 0.127723,-0.4068 0.297974,-0.37881 0.619386,-0.28396 1.118214,0.33 0.227007,0.2794 0.442542,0.5842 0.478967,0.67733 0.07296,0.18654 -0.03512,0.553 -0.192619,0.65315 -0.128447,0.0817 -0.497305,0.0827 -0.611831,0.002 z m -39.409037,-3.4912 c -0.322793,-0.3228 -0.226012,-0.6104 0.397737,-1.18195 0.645246,-0.59125 0.933626,-0.64877 1.233003,-0.24594 0.147539,0.19853 0.153127,0.24931 0.0507,0.46075 -0.150366,0.31041 -1.127057,1.13647 -1.343701,1.13647 -0.09262,0 -0.244609,-0.0762 -0.337743,-0.16933 z m 27.643666,-5.41978 c -0.712228,-0.28539 -0.96819,-0.56208 -0.820286,-0.88669 0.181611,-0.39859 0.439017,-0.43586 1.169732,-0.16935 0.972575,0.35472 1.188365,0.67004 0.755068,1.10333 -0.255781,0.25578 -0.359229,0.25135 -1.104514,-0.0473 z m -14.924827,-1.23136 c -0.233566,-0.16359 -0.256244,-0.62834 -0.04001,-0.81982 0.08149,-0.0722 0.4477,-0.19241 0.813797,-0.26721 0.547287,-0.11182 0.705343,-0.11703 0.888999,-0.0293 0.233162,0.11139 0.315662,0.36021 0.231118,0.69706 -0.05688,0.22662 -0.123394,0.25711 -0.926633,0.42468 -0.745869,0.15561 -0.737308,0.15566 -0.967275,-0.005 z"
       id="path1983"
       inkscape:connector-curvature="0" />
  </g>
</svg>
