<?xml version="1.0" encoding="UTF-8" standalone="no"?>
<svg
   xmlns:dc="http://purl.org/dc/elements/1.1/"
   xmlns:cc="http://creativecommons.org/ns#"
   xmlns:rdf="http://www.w3.org/1999/02/22-rdf-syntax-ns#"
   xmlns:svg="http://www.w3.org/2000/svg"
   xmlns="http://www.w3.org/2000/svg"
   xmlns:sodipodi="http://sodipodi.sourceforge.net/DTD/sodipodi-0.dtd"
   xmlns:inkscape="http://www.inkscape.org/namespaces/inkscape"
   style="enable-background:new 0 0 512 512;"
   version="1.1"
   viewBox="0 0 512 512"
   xml:space="preserve"
   id="svg20"
   sodipodi:docname="iconfinder_UI_Basic_GLYPH-36_4733388.svg"
   inkscape:version="0.92.4 (5da689c313, 2019-01-14)"><metadata
     id="metadata26"><rdf:RDF><cc:Work
         rdf:about=""><dc:format>image/svg+xml</dc:format><dc:type
           rdf:resource="http://purl.org/dc/dcmitype/StillImage" /><dc:title></dc:title></cc:Work></rdf:RDF></metadata><defs
     id="defs24" /><sodipodi:namedview
     pagecolor="#ffffff"
     bordercolor="#666666"
     borderopacity="1"
     objecttolerance="10"
     gridtolerance="10"
     guidetolerance="10"
     inkscape:pageopacity="0"
     inkscape:pageshadow="2"
     inkscape:window-width="1366"
     inkscape:window-height="715"
     id="namedview22"
     showgrid="false"
     inkscape:zoom="0.4609375"
     inkscape:cx="256"
     inkscape:cy="256"
     inkscape:window-x="-8"
     inkscape:window-y="-8"
     inkscape:window-maximized="1"
     inkscape:current-layer="g17" /><style
     type="text/css"
     id="style2">
	.st0{fill:#333333;}
	.st1{fill:none;stroke:#333333;stroke-width:32;stroke-linecap:round;stroke-linejoin:round;stroke-miterlimit:10;}
</style><g
     id="Layer_1" /><g
     id="Layer_2"><g
       id="g17"><g
         id="g7"
         style="fill:#cccccc"><path
           class="st0"
           d="M454.48,152.2H236.13c-7.74,0-14.02-6.28-14.02-14.02v-37.57c0-7.74,6.28-14.02,14.02-14.02h218.35     c7.74,0,14.02,6.28,14.02,14.02v37.57C468.5,145.92,462.22,152.2,454.48,152.2z"
           id="path5"
           style="fill:#cccccc" /></g><g
         id="g11"
         style="fill:#cccccc"><path
           class="st0"
           d="M365.18,288.8H146.82c-7.74,0-14.02-6.28-14.02-14.02v-37.57c0-7.74,6.28-14.02,14.02-14.02h218.35     c7.74,0,14.02,6.28,14.02,14.02v37.57C379.19,282.53,372.92,288.8,365.18,288.8z"
           id="path9"
           style="fill:#cccccc" /></g><g
         id="g15"
         style="fill:#cccccc"><path
           class="st0"
           d="M275.87,425.41H57.52c-7.74,0-14.02-6.28-14.02-14.02v-37.57c0-7.74,6.28-14.02,14.02-14.02h218.35     c7.74,0,14.02,6.28,14.02,14.02v37.57C289.89,419.13,283.61,425.41,275.87,425.41z"
           id="path13"
           style="fill:#cccccc" /></g></g></g></svg>