<?xml version="1.0" encoding="UTF-8" standalone="no"?>
<svg
   xmlns:dc="http://purl.org/dc/elements/1.1/"
   xmlns:cc="http://creativecommons.org/ns#"
   xmlns:rdf="http://www.w3.org/1999/02/22-rdf-syntax-ns#"
   xmlns:svg="http://www.w3.org/2000/svg"
   xmlns="http://www.w3.org/2000/svg"
   xmlns:sodipodi="http://sodipodi.sourceforge.net/DTD/sodipodi-0.dtd"
   xmlns:inkscape="http://www.inkscape.org/namespaces/inkscape"
   data-name="Layer 2"
   id="Layer_2"
   viewBox="0 0 32 32"
   version="1.1"
   sodipodi:docname="menu3black.svg"
   inkscape:version="0.92.4 (5da689c313, 2019-01-14)">
  <metadata
     id="metadata15">
    <rdf:RDF>
      <cc:Work
         rdf:about="">
        <dc:format>image/svg+xml</dc:format>
        <dc:type
           rdf:resource="http://purl.org/dc/dcmitype/StillImage" />
        <dc:title></dc:title>
      </cc:Work>
    </rdf:RDF>
  </metadata>
  <defs
     id="defs13" />
  <sodipodi:namedview
     pagecolor="#ffffff"
     bordercolor="#666666"
     borderopacity="1"
     objecttolerance="10"
     gridtolerance="10"
     guidetolerance="10"
     inkscape:pageopacity="0"
     inkscape:pageshadow="2"
     inkscape:window-width="1366"
     inkscape:window-height="715"
     id="namedview11"
     showgrid="false"
     inkscape:zoom="7.375"
     inkscape:cx="-24.677966"
     inkscape:cy="16"
     inkscape:window-x="-8"
     inkscape:window-y="-8"
     inkscape:window-maximized="1"
     inkscape:current-layer="Layer_2" />
  <path
     d="M11.19,12.4q4.11.15,8.21,0c1.61-.05,1.62-2.55,0-2.5q-4.09.13-8.21,0c-1.61-.06-1.6,2.44,0,2.5Z"
     id="path4"
     style="fill:#000000" />
  <path
     d="M13.56,16.79h4.9a1.25,1.25,0,0,0,0-2.5h-4.9a1.25,1.25,0,0,0,0,2.5Z"
     id="path6"
     style="fill:#000000" />
  <path
     d="M16,21.55l2.68.07a1.25,1.25,0,0,0,0-2.5L16,19.05a1.25,1.25,0,0,0,0,2.5Z"
     id="path8"
     style="fill:#000000" />
</svg>
